<svg width="862" height="598" viewBox="0 0 862 598" fill="none" xmlns="http://www.w3.org/2000/svg">
<rect width="862" height="598" fill="white"/>
<path fill-rule="evenodd" clip-rule="evenodd" d="M663.962 379.14C659.643 379.14 655.325 379.428 651.102 379.908C628.165 348.237 601.869 321.365 574.229 304.283C502.251 259.944 403.401 272.612 311.172 306.778C247.736 330.195 167.408 405.82 115.871 459.372C48.6915 464.458 -2.94089 510.141 0.130188 562.445C0.801985 573.865 4.065 584.614 9.34341 594.499L234.779 596.035C235.163 595.459 235.547 594.787 235.931 594.211L570.294 593.06C570.678 593.539 571.062 594.019 571.446 594.595L756.574 594.307C773.753 571.562 784.022 542.483 784.022 510.716C784.022 437.97 730.278 379.14 663.962 379.14Z" fill="#4F46E5"/>
<path fill-rule="evenodd" clip-rule="evenodd" d="M580.851 308.601C495.725 361.385 419.332 362.537 369.811 353.996C323.937 346.126 290.827 328.467 280.078 321.557C278.254 322.613 276.431 323.669 274.511 324.724C283.341 330.771 317.89 350.733 367.795 359.466C384.11 362.345 400.521 363.785 417.028 363.785C433.823 363.785 450.618 362.345 467.317 359.37C507.721 352.172 547.549 336.337 585.938 312.248C584.21 310.905 582.579 309.753 580.851 308.601Z" fill="white"/>
<path fill-rule="evenodd" clip-rule="evenodd" d="M572.022 399.294C585.554 380.292 602.253 369.639 621.735 367.528C630.756 366.568 638.338 367.815 642.848 368.871C641.025 366.568 639.201 364.265 637.378 362.057C632.963 361.481 627.493 361.193 621.447 361.865C606.763 363.401 585.458 370.503 567.319 396.031C566.359 397.279 566.743 399.102 567.991 400.062C568.471 400.446 569.047 400.638 569.622 400.638C570.582 400.542 571.446 400.158 572.022 399.294Z" fill="white"/>
<path fill-rule="evenodd" clip-rule="evenodd" d="M573.077 466.762V466.762C574.709 466.762 575.957 465.514 576.053 463.978C576.244 455.533 579.603 436.339 591.408 418.296C605.036 397.279 625.19 384.418 651.102 379.812C649.854 378.084 648.607 376.357 647.263 374.629C621.351 379.908 600.429 393.824 586.513 415.129C574.901 432.98 570.486 452.558 570.198 463.787C570.198 465.418 571.446 466.762 573.077 466.762Z" fill="white"/>
<path fill-rule="evenodd" clip-rule="evenodd" d="M166.448 438.45C154.26 437.97 142.551 439.122 133.914 440.945C131.035 443.825 128.156 446.704 125.372 449.583C136.025 443.729 196.679 436.435 221.727 464.938C222.303 465.61 223.071 465.898 223.935 465.898C224.606 465.898 225.278 465.706 225.854 465.226C227.006 464.17 227.198 462.347 226.142 461.195C209.923 442.673 181.803 439.026 166.448 438.45Z" fill="white"/>
<path fill-rule="evenodd" clip-rule="evenodd" d="M113.952 459.564C113.952 459.564 114.048 459.564 114.144 459.564C114.048 459.468 113.952 459.564 113.952 459.564C113.856 459.564 113.952 459.564 113.952 459.564Z" fill="white"/>
<path fill-rule="evenodd" clip-rule="evenodd" d="M215.777 479.622C181.899 453.997 139.672 452.462 121.821 453.23C119.806 455.341 117.791 457.356 115.871 459.372C126.14 458.508 175.181 456.205 212.322 484.228C212.802 484.612 213.474 484.804 214.05 484.804C214.913 484.804 215.777 484.42 216.353 483.653C217.313 482.405 217.025 480.581 215.777 479.622Z" fill="white"/>
<path fill-rule="evenodd" clip-rule="evenodd" d="M69.4213 593.635C69.4213 593.635 100.9 500.543 189.481 517.434C278.062 534.325 399.274 570.602 399.274 570.602V593.923L69.4213 593.635Z" fill="white"/>
<path fill-rule="evenodd" clip-rule="evenodd" d="M128.355 521.266C113.297 528.293 100.391 539.123 89.489 552.708C82.48 561.443 76.7161 570.788 72.1086 580.136C70.4944 583.411 69.1386 586.455 68.0311 589.193L67.5619 590.374C67.4161 590.748 67.281 591.101 67.1563 591.434L66.784 592.453C66.7464 592.56 66.7164 592.647 66.6939 592.713C66.063 594.579 67.4494 596.513 69.4188 596.514L399.271 596.802C400.862 596.804 402.153 595.514 402.153 593.923V570.602C402.153 569.33 401.318 568.209 400.099 567.844L396.268 566.709L391.093 565.19C383.873 563.081 375.709 560.732 366.768 558.202C341.222 550.973 314.563 543.743 288.12 536.996C274.829 533.604 261.905 530.416 249.445 527.466L245.948 526.641C225.639 521.873 206.894 517.824 190.02 514.606C167.063 510.229 146.521 512.788 128.355 521.266ZM188.942 520.262C206.689 523.646 226.538 527.96 248.119 533.069C260.545 536.011 273.436 539.191 286.696 542.575C311.698 548.955 336.899 555.768 361.165 562.603L365.2 563.742C373.314 566.038 380.786 568.185 387.491 570.138L396.395 572.749V591.041L73.6114 590.76L73.8739 590.126C74.8308 587.839 75.9622 585.342 77.2735 582.682C81.7061 573.689 87.2531 564.695 93.9801 556.312C104.363 543.373 116.598 533.107 130.79 526.484C147.86 518.518 167.172 516.111 188.942 520.262Z" fill="#1E293B"/>
<path fill-rule="evenodd" clip-rule="evenodd" d="M769.25 253.463C769.25 253.463 761.85 249.763 760.95 241.263C760.05 232.763 765.75 195.763 774.95 190.563C784.25 185.363 826.55 162.463 834.35 162.963C842.15 163.463 845.35 231.363 769.25 253.463Z" fill="white"/>
<path fill-rule="evenodd" clip-rule="evenodd" d="M773.75 194.663C789.55 139.363 802.45 126.963 809.95 132.363C816.75 137.263 802.95 172.463 798.95 190.763" fill="white"/>
<path fill-rule="evenodd" clip-rule="evenodd" d="M788.262 137.235L788.678 136.468C794.178 126.524 800.498 122.747 806.582 126.325C810.169 128.436 810.995 133.41 810.388 141.495L810.294 142.635C809.851 147.643 808.903 153.53 807.259 162.116L804.555 175.974C803.295 182.519 802.9 184.966 802.47 188.443C802.267 190.088 800.77 191.256 799.125 191.053C797.481 190.85 796.313 189.353 796.516 187.708L796.68 186.412C797.06 183.522 797.487 180.978 798.512 175.628L801.236 161.665C803.048 152.254 804.022 146.137 804.404 141.045L804.457 140.277C804.784 135.005 804.241 131.909 803.539 131.496C801.095 130.059 797.769 132.143 793.558 140.054L793.178 140.78C787.801 151.244 782.532 169.197 777.708 194.838C777.402 196.466 775.834 197.538 774.206 197.232C772.577 196.925 771.506 195.357 771.812 193.729L772.16 191.894C777.107 166.083 782.544 147.976 788.262 137.235Z" fill="#1E293B"/>
<path fill-rule="evenodd" clip-rule="evenodd" d="M843.45 182.663C851.35 169.763 864.45 170.463 857.65 192.363C850.95 213.763 846.05 241.563 833.55 254.163C821.05 266.763 816.55 272.363 816.55 272.363C816.55 272.363 791.55 365.663 777.35 443.263C756.85 555.463 718.05 577.063 681.85 564.163C645.65 551.363 638.95 500.563 688.35 402.063C737.75 303.463 763.85 246.063 763.85 246.063" fill="white"/>
<path fill-rule="evenodd" clip-rule="evenodd" d="M764.75 247.763C757.55 242.863 758.45 214.663 750.35 202.363C740.35 187.063 730.55 171.163 749.05 173.563C764.95 175.563 769.95 189.563 773.65 194.563" fill="white"/>
<path fill-rule="evenodd" clip-rule="evenodd" d="M839.892 180.096C844.376 172.773 850.898 168.666 856.131 170.659C861.892 172.854 863.015 180.68 859.65 191.812L858.924 194.171C858.058 197.023 857.167 200.15 855.988 204.417L853.815 212.31C847.458 235.241 842.753 246.988 834.936 255.015L832.971 257.006C828.885 261.157 825.477 264.743 822.693 267.785L821.589 268.999C820.431 270.281 819.483 271.359 818.729 272.241L818.279 272.769L816.699 278.765L815.281 284.21C813.905 289.518 812.417 295.333 810.84 301.581C805.13 324.195 799.421 347.856 794.094 371.401L792.942 376.514C790.471 387.548 788.145 398.297 785.989 408.689L785.123 412.888C783.269 421.935 781.56 430.645 780.007 438.981L779.302 442.802C769.522 496.329 755.117 532.111 736.671 551.683C720.171 569.191 700.693 573.419 679.85 565.991C659.821 558.909 649.026 541.23 649 514.253C648.974 486.172 660.49 448.23 683.954 401.149L688.565 391.931C707.249 354.534 723.747 320.748 738 290.914L743.544 279.271C746.968 272.056 750.074 265.459 752.859 259.499L757.242 250.078L759.157 246.042C759.843 244.534 761.621 243.867 763.13 244.553C764.584 245.214 765.256 246.891 764.687 248.363L765.274 246.979L762.156 253.745L757.875 262.939C754.628 269.878 750.959 277.658 746.87 286.252L742.674 295.048C727.586 326.601 710.016 362.52 690.032 402.408C644.656 492.884 644.707 547.201 681.857 560.337C700.512 566.985 717.475 563.303 732.305 547.568C749.631 529.184 763.528 494.91 773.11 443.292L773.399 441.723C775.376 430.924 777.623 419.479 780.114 407.47C782.61 395.442 785.33 382.942 788.242 370.077C793.285 347.79 798.667 325.405 804.069 303.899L806.267 295.198C807.288 291.181 808.267 287.366 809.196 283.774L811.06 276.614L812.653 270.586C812.76 270.184 812.951 269.809 813.212 269.484L813.624 268.985L814.169 268.342C814.958 267.418 815.943 266.298 817.137 264.977L818.652 263.314C821.806 259.882 825.706 255.803 830.421 251.05L830.876 250.581C837.283 243.85 841.629 233.347 847.233 213.563L850.829 200.571C851.825 196.999 852.624 194.242 853.424 191.637L853.785 190.473C856.487 181.772 855.842 176.97 853.995 176.266C852.149 175.563 848.169 178.07 845.009 183.23C844.143 184.643 842.297 185.087 840.884 184.221C839.471 183.356 839.027 181.509 839.892 180.096Z" fill="#1E293B"/>
<path fill-rule="evenodd" clip-rule="evenodd" d="M738.558 178.701C737.228 170.175 742.486 166.173 752.844 168.465C761.542 170.354 767.525 175.272 772.065 182.677L772.277 183.029C773.925 185.833 776.976 192.159 777.387 192.889L777.41 192.93C778.274 194.344 777.828 196.19 776.414 197.054C775 197.917 773.153 197.471 772.29 196.057L772.201 195.903C771.463 194.57 768.291 188 766.95 185.813C763.201 179.699 758.499 175.833 751.56 174.325C747.939 173.524 745.779 173.672 744.934 174.316C744.435 174.696 744.192 175.661 744.448 177.518L744.486 177.777C745.151 182.042 747.67 187.649 753.303 198.234L753.592 198.777C756.231 203.681 757.564 209.979 758.608 219.953L758.816 222.01L759.422 228.436C760.386 238.241 761.413 242.81 763.086 244.302L763.172 244.375C764.454 245.425 764.641 247.315 763.592 248.597C762.542 249.878 760.651 250.066 759.37 249.016C755.859 246.141 754.67 241.296 753.509 229.62L752.809 222.236L752.706 221.203C751.749 211.824 750.562 205.965 748.443 201.875L746.846 198.859C741.659 188.992 739.314 183.555 738.558 178.701Z" fill="#1E293B"/>
<path fill-rule="evenodd" clip-rule="evenodd" d="M834.25 206.063C834.25 206.063 848.35 171.863 853.05 155.963C858.25 138.663 840.05 136.163 831.25 161.063" fill="white"/>
<path fill-rule="evenodd" clip-rule="evenodd" d="M846.206 136.694C854.007 136.187 857.806 143.783 855.024 153.486L854.927 153.813C853.491 158.674 851.135 165.426 848.061 173.632L847.512 175.095C847.087 176.222 846.651 177.371 846.205 178.538C844.256 183.638 842.186 188.916 840.101 194.133L838.392 198.387L836.622 202.748L836.024 204.206C835.392 205.738 833.639 206.468 832.107 205.836C830.63 205.228 829.898 203.575 830.414 202.084L832.829 196.14C833.092 195.489 833.362 194.818 833.639 194.128C835.716 188.958 837.793 183.696 839.763 178.579L841.039 175.244L841.897 172.979C845.101 164.48 847.563 157.484 849.052 152.52L849.177 152.099C851.093 145.727 849.513 142.492 846.595 142.682C842.274 142.962 836.71 148.788 833.079 159.063C832.527 160.625 830.813 161.444 829.251 160.891C827.689 160.339 826.87 158.625 827.422 157.063C831.768 144.766 839.032 137.161 846.206 136.694Z" fill="#1E293B"/>
<path fill-rule="evenodd" clip-rule="evenodd" d="M817.65 197.063C817.65 197.063 845.35 134.363 832.95 128.763C821.65 123.663 813.05 146.563 798.85 190.763" fill="white"/>
<path fill-rule="evenodd" clip-rule="evenodd" d="M811.481 139.279C816.866 127.341 822.715 122.282 830.206 125.19C837.909 128.183 837.178 141.226 831.588 162.763C830.638 166.42 829.555 170.244 828.361 174.188C826.819 179.279 825.163 184.349 823.482 189.213L822.851 191.027C822.261 192.711 821.707 194.26 821.2 195.651L820.305 198.071C819.718 199.621 817.986 200.4 816.437 199.813C814.887 199.226 814.108 197.494 814.695 195.944L815.379 194.101L815.946 192.541C816.337 191.457 816.753 190.288 817.189 189.043C819.058 183.708 820.911 178.088 822.618 172.449C823.79 168.578 824.852 164.831 825.78 161.255L826.186 159.667C830.351 143.074 830.888 131.892 828.033 130.783C824.482 129.404 820.948 132.596 816.598 142.538L816.1 143.698C812.112 153.148 808.036 166.849 801.291 192.487C800.869 194.09 799.229 195.047 797.626 194.625C796.024 194.204 795.067 192.563 795.488 190.961L796.94 185.475C803.117 162.257 806.997 149.597 810.972 140.431L811.481 139.279Z" fill="#1E293B"/>
<path fill-rule="evenodd" clip-rule="evenodd" d="M381 239.549L384.745 307.477C384.745 307.477 378.407 344.179 429.299 337.357C479.998 330.632 473.756 300.559 473.756 300.559L458.105 216.202L381 239.549Z" fill="white"/>
<path fill-rule="evenodd" clip-rule="evenodd" d="M457.078 213.329L380.013 236.65C378.743 237.035 377.899 238.239 377.973 239.565L381.7 307.118L381.66 307.425C381.64 307.594 381.619 307.783 381.599 307.994C381.126 312.869 381.674 318.427 384.068 323.779C389.914 336.849 404.477 343.311 429.503 339.958C449.929 337.25 463.217 330.628 470.503 321.141C475.799 314.247 477.238 306.998 476.538 300.85L476.489 300.46C476.457 300.221 476.425 300.023 476.396 299.869L460.743 215.56C460.43 213.873 458.72 212.833 457.078 213.329ZM383.846 241.506L455.668 219.771L470.752 301.021C470.771 301.138 470.793 301.294 470.816 301.501C471.361 306.284 470.214 312.065 465.937 317.633C459.666 325.797 447.766 331.729 428.742 334.251C406.06 337.289 394.031 331.951 389.325 321.428C387.4 317.125 386.945 312.517 387.33 308.549L387.373 308.144C387.396 307.953 387.415 307.819 387.427 307.748L387.456 307.533C387.47 307.389 387.473 307.244 387.465 307.099L383.846 241.506Z" fill="#1E293B"/>
<path fill-rule="evenodd" clip-rule="evenodd" d="M493.4 123.184C493.4 123.184 534.4 107.784 536 150.484C537.6 193.184 493.4 182.084 493.4 182.084" fill="white"/>
<path fill-rule="evenodd" clip-rule="evenodd" d="M497.37 118.912C503.294 117.512 509.405 117.01 515.207 117.956C529.338 120.258 538.257 130.597 538.998 150.371C539.764 170.819 530.661 182.011 515.363 185.359C509.135 186.721 502.577 186.642 496.378 185.699L495.409 185.544C494.189 185.339 493.257 185.141 492.669 184.993C491.062 184.59 490.087 182.96 490.49 181.353C490.88 179.804 492.409 178.841 493.959 179.136L494.61 179.283L494.92 179.349C495.607 179.49 496.399 179.633 497.28 179.767C502.814 180.609 508.676 180.68 514.08 179.497C526.598 176.758 533.657 168.079 533.002 150.596L532.956 149.58C532.089 133.33 525.297 125.679 514.242 123.877C509.331 123.077 503.97 123.518 498.75 124.751C497.74 124.99 496.808 125.243 495.968 125.497L495.556 125.624C495.25 125.72 494.998 125.803 494.805 125.868L494.455 125.992C492.904 126.575 491.174 125.79 490.592 124.239C490.009 122.688 490.794 120.958 492.345 120.375L492.732 120.235C493.773 119.867 495.36 119.387 497.37 118.912Z" fill="#1E293B"/>
<path fill-rule="evenodd" clip-rule="evenodd" d="M416.5 258.184V258.184C372.1 258.184 336.1 222.184 336.1 177.784V107.584C336.1 79.1838 359.2 56.0838 387.6 56.0838H458C479.5 56.0838 497 73.5838 497 95.0838V177.684C497 222.084 461 258.184 416.5 258.184Z" fill="white"/>
<path fill-rule="evenodd" clip-rule="evenodd" d="M458 53.0838H387.6C357.543 53.0838 333.1 77.527 333.1 107.584V177.784C333.1 223.841 370.443 261.184 416.5 261.184L417.857 261.173C463.42 260.434 500 223.26 500 177.684V95.0838C500 71.927 481.157 53.0838 458 53.0838ZM387.6 59.0838H458C477.843 59.0838 494 75.2407 494 95.0838V177.684C494 219.984 460.048 254.488 417.784 255.173L416.476 255.184C373.757 255.184 339.1 220.527 339.1 177.784V107.584C339.1 80.8407 360.857 59.0838 387.6 59.0838Z" fill="#1E293B"/>
<path fill-rule="evenodd" clip-rule="evenodd" d="M395.943 145.238C396.567 143.704 398.318 142.966 399.852 143.59C401.332 144.193 402.071 145.842 398.98 152.967L401.5 147.5C401.5 147.5 398.374 161.5 395.943 168C393.511 174.5 385.33 186.519 385.33 186.519L397.218 188.439C398.796 188.694 399.886 190.135 399.725 191.704L399.702 191.879C399.447 193.456 398.006 194.547 396.436 194.386L396.262 194.362L383.284 192.266C380.126 191.78 378.246 188.522 379.289 185.469L379.361 185.27C379.361 185.27 387.359 174.989 390.18 166.245C393 157.5 395.943 145.238 395.943 145.238Z" fill="#1E293B"/>
<path fill-rule="evenodd" clip-rule="evenodd" d="M423.457 202.374C425.131 201.278 427.387 202.096 427.97 204.01L428.04 204.257C428.113 204.534 428.195 204.899 428.272 205.341C428.89 208.857 428.555 212.747 426.544 216.471C423.195 222.676 415.955 226.721 404.294 227.869C402.645 228.032 401.177 226.827 401.014 225.178C400.852 223.529 402.057 222.061 403.706 221.898C413.525 220.931 418.956 217.897 421.265 213.62C421.834 212.566 422.194 211.473 422.382 210.381L422.447 209.958L422.356 210.008C409.316 217.031 396.289 217.499 389.833 210.277L389.618 210.031C388.542 208.77 388.693 206.877 389.953 205.801C391.214 204.726 393.107 204.876 394.183 206.137C398.824 211.579 411.108 210.455 423.457 202.374Z" fill="#1E293B"/>
<path fill-rule="evenodd" clip-rule="evenodd" d="M439 158C442.314 158 445 153.523 445 148C445 142.477 442.314 138 439 138C435.686 138 433 142.477 433 148C433 153.523 435.686 158 439 158Z" fill="#1E293B"/>
<path fill-rule="evenodd" clip-rule="evenodd" d="M366.5 160C370.09 160 373 155.523 373 150C373 144.477 370.09 140 366.5 140C362.91 140 360 144.477 360 150C360 155.523 362.91 160 366.5 160Z" fill="#1E293B"/>
<path fill-rule="evenodd" clip-rule="evenodd" d="M353.355 102.132C360.843 96.1587 369.055 95.8775 376.267 105.141C377.285 106.448 377.05 108.333 375.743 109.351C374.436 110.369 372.551 110.134 371.533 108.827C366.664 102.574 362.233 102.725 357.096 106.823C356.401 107.377 355.774 107.943 355.08 108.622L353.901 109.799C353.742 109.954 353.61 110.076 353.472 110.19C353.062 110.531 352.742 110.741 352.128 110.894C350.52 111.296 348.891 110.319 348.49 108.711C348.188 107.506 348.663 106.288 349.597 105.585L349.712 105.503L350.484 104.729C351.469 103.744 352.34 102.941 353.355 102.132Z" fill="#1E293B"/>
<path fill-rule="evenodd" clip-rule="evenodd" d="M419.168 103.079C425.714 98.1003 433.485 97.5684 441.868 104.236C443.164 105.267 443.379 107.155 442.348 108.451C441.316 109.748 439.429 109.963 438.132 108.932C432.067 104.107 427.298 104.433 422.8 107.855C422.192 108.317 421.649 108.791 421.063 109.354L419.961 110.442C419.807 110.591 419.676 110.71 419.535 110.824C419.147 111.138 418.81 111.349 418.228 111.494C416.62 111.896 414.991 110.919 414.59 109.311C414.288 108.106 414.763 106.888 415.697 106.185L415.827 106.092L416.484 105.439C417.382 104.549 418.199 103.816 419.168 103.079Z" fill="#1E293B"/>
<path fill-rule="evenodd" clip-rule="evenodd" d="M548.319 246.468C564.506 233.065 568.117 210.82 556.384 196.783C544.651 182.747 522.018 182.233 505.831 195.636C489.645 209.04 486.034 231.284 497.766 245.321C509.499 259.358 532.132 259.871 548.319 246.468Z" fill="#5C4033"/>
<path fill-rule="evenodd" clip-rule="evenodd" d="M572.793 279.649C580.563 266.631 577.622 250.585 566.224 243.81C554.826 237.034 539.286 242.094 531.516 255.112C523.745 268.131 526.686 284.177 538.084 290.952C549.483 297.728 565.022 292.667 572.793 279.649Z" fill="#5C4033"/>
<path fill-rule="evenodd" clip-rule="evenodd" d="M573.612 328.024C584.836 320.382 588.489 306.275 581.771 296.514C575.054 286.753 560.509 285.035 549.285 292.677C538.06 300.318 534.407 314.426 541.125 324.187C547.842 333.947 562.387 335.665 573.612 328.024Z" fill="#5C4033"/>
<path fill-rule="evenodd" clip-rule="evenodd" d="M575.239 364.684C585.891 361.038 591.917 350.59 588.698 341.347C585.48 332.104 574.235 327.567 563.583 331.213C552.931 334.859 546.905 345.307 550.124 354.55C553.343 363.793 564.587 368.33 575.239 364.684Z" fill="#5C4033"/>
<path fill-rule="evenodd" clip-rule="evenodd" d="M557.21 391.033C563.861 398.524 562.835 404.914 560.47 409.236C559.373 411.359 561.457 413.711 563.633 412.849C576.305 407.95 597.076 397.109 590.229 379.37C587.059 370.95 577.182 366.322 567.36 369.344C557.413 372.318 551.286 384.243 557.21 391.033Z" fill="#5C4033"/>
<path fill-rule="evenodd" clip-rule="evenodd" d="M549.909 237.04C552.29 235.349 555.603 235.906 557.309 238.283C558.96 240.583 558.501 243.746 556.312 245.48L556.088 245.648L535.016 260.613C532.636 262.304 529.323 261.748 527.617 259.371C525.966 257.07 526.424 253.907 528.613 252.173L528.838 252.005L549.909 237.04Z" fill="#FACC15"/>
<path fill-rule="evenodd" clip-rule="evenodd" d="M568.126 284.086C570.957 283.348 573.861 285.038 574.612 287.86C575.338 290.592 573.782 293.382 571.115 294.228L570.845 294.306L549.542 299.857C546.711 300.595 543.807 298.905 543.057 296.082C542.33 293.351 543.886 290.56 546.553 289.715L546.823 289.636L568.126 284.086Z" fill="#FACC15"/>
<path fill-rule="evenodd" clip-rule="evenodd" d="M570.114 325.313C573.033 325.084 575.594 327.255 575.835 330.163C576.068 332.98 574.038 335.455 571.257 335.816L570.986 335.844L564.248 336.374C561.329 336.603 558.768 334.431 558.527 331.523C558.294 328.706 560.324 326.231 563.105 325.871L563.376 325.842L570.114 325.313Z" fill="#FACC15"/>
<path fill-rule="evenodd" clip-rule="evenodd" d="M575.468 362.306C578.382 362.025 580.981 364.152 581.273 367.056C581.556 369.869 579.57 372.379 576.796 372.788L576.525 372.821L569.741 373.473C566.826 373.754 564.227 371.627 563.935 368.723C563.652 365.911 565.638 363.4 568.412 362.991L568.683 362.958L575.468 362.306Z" fill="#FACC15"/>
<path fill-rule="evenodd" clip-rule="evenodd" d="M319 64.5412C334 -11.5162 385.596 -9.29848 441 16.4838C494.5 0.499993 536.695 40.8614 553.999 64.5413C574.928 92.9461 585.885 139.936 573.284 176.421C545.791 237.079 491 244.5 466 241C479.5 232 495 201 498 180.484C502.421 181.163 537.81 184.962 537.5 149.484C537.448 134.343 530.255 123.147 521.05 120.011C519.5 124.5 514.876 127.131 509 126.5C480.381 123.102 410.5 88.9264 397 70.9838C397 70.9838 387.565 85.444 376 92.4838C353 106.484 334 106.984 334 106.984C318 108.984 315.166 83.9838 319 64.5412Z" fill="#5C4033"/>
<path fill-rule="evenodd" clip-rule="evenodd" d="M444.3 110.884C422.43 110.884 404.7 128.613 404.7 150.484C404.7 172.354 422.43 190.084 444.3 190.084C466.17 190.084 483.9 172.354 483.9 150.484C483.9 128.613 466.17 110.884 444.3 110.884ZM444.3 116.884C462.857 116.884 477.9 131.927 477.9 150.484C477.9 169.041 462.857 184.084 444.3 184.084C425.743 184.084 410.7 169.041 410.7 150.484C410.7 131.927 425.743 116.884 444.3 116.884Z" fill="#1E293B"/>
<path fill-rule="evenodd" clip-rule="evenodd" d="M406.9 146.584C408.557 146.584 409.9 147.927 409.9 149.584C409.9 151.181 408.651 152.487 407.076 152.579L406.9 152.584H383.1C381.443 152.584 380.1 151.241 380.1 149.584C380.1 147.986 381.349 146.68 382.924 146.589L383.1 146.584H406.9Z" fill="#1E293B"/>
<path fill-rule="evenodd" clip-rule="evenodd" d="M495.524 118.472C496.966 117.657 498.796 118.165 499.612 119.608C500.397 120.997 499.954 122.745 498.633 123.601L498.476 123.696L477.776 135.396C476.334 136.211 474.504 135.702 473.688 134.26C472.903 132.871 473.346 131.122 474.667 130.267L474.824 130.172L495.524 118.472Z" fill="#1E293B"/>
<path fill-rule="evenodd" clip-rule="evenodd" d="M345.3 110.884C323.43 110.884 305.7 128.613 305.7 150.484C305.7 172.354 323.43 190.084 345.3 190.084C367.17 190.084 384.9 172.354 384.9 150.484C384.9 128.613 367.17 110.884 345.3 110.884ZM345.3 116.884C363.857 116.884 378.9 131.927 378.9 150.484C378.9 169.041 363.857 184.084 345.3 184.084C326.743 184.084 311.7 169.041 311.7 150.484C311.7 131.927 326.743 116.884 345.3 116.884Z" fill="#1E293B"/>
<path d="M505 160.943C507.25 168.119 509.811 160.509 512.851 161.972C514.346 167.499 507.214 169.63 506.781 175C512.011 174.757 514.651 171.422 516.437 167.385C518.495 162.733 516.788 158.879 512.823 155.95C515.328 150.816 520.917 149.053 524 144.24C520.29 142.916 518.38 145.349 516.201 146.872C513.985 148.422 512.802 151.183 509.805 152.584C510.146 145.028 514.185 139.581 518.396 134C510.504 134.392 505.439 144.736 505 160.943Z" fill="#1E293B"/>
<path fill-rule="evenodd" clip-rule="evenodd" d="M567.714 565.59H548.977L539.789 429.296C539.158 419.747 530.871 412 521.322 412H260.174C250.625 412 243.328 419.747 244.049 429.296L254.228 580.183C254.859 589.732 263.147 597.479 272.695 597.479L567.624 597.119C573.029 597.119 577.353 592.705 577.353 587.39V575.409C577.443 570.004 573.119 565.59 567.714 565.59Z" fill="#CBD5E1"/>
<path fill-rule="evenodd" clip-rule="evenodd" d="M384.484 517.071C390.831 513.409 396.989 510 398.989 508.5C400.989 507 402.976 505.148 405.02 502.289C407.065 499.43 407.511 491.957 407.5 491.729C407.489 491.5 407.506 491.563 407.5 491.5C407.494 491.437 407.5 490.5 407.297 489.975C407.095 489.45 406.918 489.091 406.559 488.546C406.2 488 405.972 487.73 405.5 487C405.028 486.27 401.692 483.913 398.561 483.764C395.43 483.614 390.046 486.494 388.448 488.483C387.658 486.967 384.989 483.628 381.989 482.5C372.556 478.955 367.941 484 366.537 485.812C359.429 494.978 362.989 504 368.989 512.5C374.989 522 372.654 523.897 384.484 517.071Z" fill="white"/>
<path fill-rule="evenodd" clip-rule="evenodd" d="M405.206 467.581C405.206 467.581 391.694 464.878 389.892 476.139C389.982 476.139 400.612 479.922 405.206 467.581Z" fill="white"/>
</svg>
